<svg xmlns="http://www.w3.org/2000/svg" viewBox="0 0 64 64">
  <path d="M11 6L11 58L53 58L53 24.154297C53 22.117297 52.280703 20.144938 50.970703 18.585938L42.109375 8.0429688C41.021375 6.7479688 39.416609 6 37.724609 6L11 6 z M 15 10L36.695312 10C39.985312 10 41 11.365078 41 12.580078C41 14.365078 39 17 39 17C48.761 21.62 48.816406 21.618547 48.816406 25.185547C48.816406 30.185547 49 54 49 54L15 54L15 10 z M 22 26L22 30L42 30L42 26L22 26 z M 22 34L22 38L42 38L42 34L22 34 z M 22 42L22 46L35 46L35 42L22 42 z" fill="#050502" />
</svg>